# xmcd
# 
# Track frame offsets:
#     187
#     22162
#     57257
#     90130
#     116382
#     147932
# 
# Disc length: 2281
# 
# Revision: 1
# Processed by: cddbd v1.5.2PL0 Copyright (c) Steve Scherf et al.
# Submitted via: fre:ac v1.0.17
# 
DISCID=4508e706
DTITLE=Mal Waldron - MAL-1
DYEAR=1956
DGENRE=Jazz
TTITLE0=Stablemates
TTITLE1=Yesterdays
TTITLE2=Transfiguration
TTITLE3=Bud Study
TTITLE4=Dee's Dilemma
TTITLE5=Shome
EXTD=YEAR: 1956
EXTT0=
EXTT1=
EXTT2=
EXTT3=
EXTT4=
EXTT5=
PLAYORDER=
